%TF.GenerationSoftware,KiCad,Pcbnew,8.0.8*%
%TF.CreationDate,2025-04-17T11:24:09+05:30*%
%TF.ProjectId,,58585858-5858-4585-9858-585858585858,rev?*%
%TF.SameCoordinates,Original*%
%TF.FileFunction,Legend,Top*%
%TF.FilePolarity,Positive*%
%FSLAX46Y46*%
G04 Gerber Fmt 4.6, Leading zero omitted, Abs format (unit mm)*
G04 Created by KiCad (PCBNEW 8.0.8) date 2025-04-17 11:24:09*
%MOMM*%
%LPD*%
G01*
G04 APERTURE LIST*
%ADD10C,0.150000*%
%ADD11C,0.350000*%
G04 APERTURE END LIST*
D10*
X243336905Y-64309726D02*
X243760238Y-65579726D01*
X243760238Y-65579726D02*
X244183572Y-64309726D01*
X245332619Y-65579726D02*
X244909285Y-64974964D01*
X244606904Y-65579726D02*
X244606904Y-64309726D01*
X244606904Y-64309726D02*
X245090714Y-64309726D01*
X245090714Y-64309726D02*
X245211666Y-64370202D01*
X245211666Y-64370202D02*
X245272143Y-64430678D01*
X245272143Y-64430678D02*
X245332619Y-64551630D01*
X245332619Y-64551630D02*
X245332619Y-64733059D01*
X245332619Y-64733059D02*
X245272143Y-64854011D01*
X245272143Y-64854011D02*
X245211666Y-64914488D01*
X245211666Y-64914488D02*
X245090714Y-64974964D01*
X245090714Y-64974964D02*
X244606904Y-64974964D01*
X246542143Y-65579726D02*
X245816428Y-65579726D01*
X246179285Y-65579726D02*
X246179285Y-64309726D01*
X246179285Y-64309726D02*
X246058333Y-64491154D01*
X246058333Y-64491154D02*
X245937381Y-64612107D01*
X245937381Y-64612107D02*
X245816428Y-64672583D01*
X199062618Y-65579726D02*
X199062618Y-64309726D01*
X199062618Y-64309726D02*
X199364999Y-64309726D01*
X199364999Y-64309726D02*
X199546428Y-64370202D01*
X199546428Y-64370202D02*
X199667380Y-64491154D01*
X199667380Y-64491154D02*
X199727857Y-64612107D01*
X199727857Y-64612107D02*
X199788333Y-64854011D01*
X199788333Y-64854011D02*
X199788333Y-65035440D01*
X199788333Y-65035440D02*
X199727857Y-65277345D01*
X199727857Y-65277345D02*
X199667380Y-65398297D01*
X199667380Y-65398297D02*
X199546428Y-65519250D01*
X199546428Y-65519250D02*
X199364999Y-65579726D01*
X199364999Y-65579726D02*
X199062618Y-65579726D01*
X200997857Y-65579726D02*
X200272142Y-65579726D01*
X200634999Y-65579726D02*
X200634999Y-64309726D01*
X200634999Y-64309726D02*
X200514047Y-64491154D01*
X200514047Y-64491154D02*
X200393095Y-64612107D01*
X200393095Y-64612107D02*
X200272142Y-64672583D01*
X154788333Y-65458773D02*
X154727857Y-65519250D01*
X154727857Y-65519250D02*
X154546428Y-65579726D01*
X154546428Y-65579726D02*
X154425476Y-65579726D01*
X154425476Y-65579726D02*
X154244047Y-65519250D01*
X154244047Y-65519250D02*
X154123095Y-65398297D01*
X154123095Y-65398297D02*
X154062618Y-65277345D01*
X154062618Y-65277345D02*
X154002142Y-65035440D01*
X154002142Y-65035440D02*
X154002142Y-64854011D01*
X154002142Y-64854011D02*
X154062618Y-64612107D01*
X154062618Y-64612107D02*
X154123095Y-64491154D01*
X154123095Y-64491154D02*
X154244047Y-64370202D01*
X154244047Y-64370202D02*
X154425476Y-64309726D01*
X154425476Y-64309726D02*
X154546428Y-64309726D01*
X154546428Y-64309726D02*
X154727857Y-64370202D01*
X154727857Y-64370202D02*
X154788333Y-64430678D01*
X155997857Y-65579726D02*
X155272142Y-65579726D01*
X155634999Y-65579726D02*
X155634999Y-64309726D01*
X155634999Y-64309726D02*
X155514047Y-64491154D01*
X155514047Y-64491154D02*
X155393095Y-64612107D01*
X155393095Y-64612107D02*
X155272142Y-64672583D01*
X108578809Y-65579726D02*
X107974047Y-65579726D01*
X107974047Y-65579726D02*
X107974047Y-64309726D01*
X109002142Y-64914488D02*
X109425476Y-64914488D01*
X109606904Y-65579726D02*
X109002142Y-65579726D01*
X109002142Y-65579726D02*
X109002142Y-64309726D01*
X109002142Y-64309726D02*
X109606904Y-64309726D01*
X110151190Y-65579726D02*
X110151190Y-64309726D01*
X110151190Y-64309726D02*
X110453571Y-64309726D01*
X110453571Y-64309726D02*
X110635000Y-64370202D01*
X110635000Y-64370202D02*
X110755952Y-64491154D01*
X110755952Y-64491154D02*
X110816429Y-64612107D01*
X110816429Y-64612107D02*
X110876905Y-64854011D01*
X110876905Y-64854011D02*
X110876905Y-65035440D01*
X110876905Y-65035440D02*
X110816429Y-65277345D01*
X110816429Y-65277345D02*
X110755952Y-65398297D01*
X110755952Y-65398297D02*
X110635000Y-65519250D01*
X110635000Y-65519250D02*
X110453571Y-65579726D01*
X110453571Y-65579726D02*
X110151190Y-65579726D01*
X112086429Y-65579726D02*
X111360714Y-65579726D01*
X111723571Y-65579726D02*
X111723571Y-64309726D01*
X111723571Y-64309726D02*
X111602619Y-64491154D01*
X111602619Y-64491154D02*
X111481667Y-64612107D01*
X111481667Y-64612107D02*
X111360714Y-64672583D01*
X64788333Y-65579726D02*
X64364999Y-64974964D01*
X64062618Y-65579726D02*
X64062618Y-64309726D01*
X64062618Y-64309726D02*
X64546428Y-64309726D01*
X64546428Y-64309726D02*
X64667380Y-64370202D01*
X64667380Y-64370202D02*
X64727857Y-64430678D01*
X64727857Y-64430678D02*
X64788333Y-64551630D01*
X64788333Y-64551630D02*
X64788333Y-64733059D01*
X64788333Y-64733059D02*
X64727857Y-64854011D01*
X64727857Y-64854011D02*
X64667380Y-64914488D01*
X64667380Y-64914488D02*
X64546428Y-64974964D01*
X64546428Y-64974964D02*
X64062618Y-64974964D01*
X65997857Y-65579726D02*
X65272142Y-65579726D01*
X65634999Y-65579726D02*
X65634999Y-64309726D01*
X65634999Y-64309726D02*
X65514047Y-64491154D01*
X65514047Y-64491154D02*
X65393095Y-64612107D01*
X65393095Y-64612107D02*
X65272142Y-64672583D01*
D11*
X247000000Y-65000000D03*
X243000000Y-65000000D03*
X202000000Y-65000000D03*
X198000000Y-65000000D03*
X157000000Y-65000000D03*
X153000000Y-65000000D03*
X112000000Y-65000000D03*
X108000000Y-65000000D03*
X67000000Y-65000000D03*
X63000000Y-65000000D03*
M02*
